<svg viewBox="0 0 505 505" xmlns="http://www.w3.org/2000/svg"><path d="m437 281v126h-52c1-10 1-21 1-31 0-11-6-16-17-16h-226c-11 0-17 5-17 16 0 10 0 21 1 31h-52v-126c7-27 18-52 16-81-2-28-1-55-1-83 1-19 8-26 27-26h278c19 0 27 7 27 26 0 28 1 55-1 83-2 29 9 54 16 81zm-346 22h330c5-49-16-82-63-92a468 468 0 0 0 -204 0c-47 10-68 42-63 92zm13-88c19-5 24-16 23-33-2-22 2-28 24-32 33-6 66-7 98 3a16.72 16.72 0 0 0 12 1c30-10 61-9 92-5 28 3 34 9 32 37-1 17 8 24 24 30 0-32-1-62 0-91 0-15-5-20-20-19h-266c-2 0-6-1-7 0-5 3-12 7-12 11-1 32 0 65 0 98zm318 106h-332v54c0 19 1 20 22 15v-18c1-17 10-27 27-27h234q25.5 0 27 27c0 6 1 13 1 20 9-2 20 7 21-8 1-21 0-41 0-63zm-280-126c36-4 70-8 105-12 2-14 2-16-11-17-23-2-47-4-70-3-25 1-28 6-24 32zm228 0c5-23 3-29-15-30-26-2-53 0-80 1-12 0-13 9-10 18 35 3 70 7 105 11z" fill="#7f7f7f"/></svg>