<svg viewBox="0 0 505 505" xmlns="http://www.w3.org/2000/svg"><path d="m86 140v-61h250c12 7 16 17 16 31-1 15-6 29-9 44-6 26-2 56-2 85 19 0 36 1 54 0 13-1 24 2 32 13v52c-7 24-17 46-37 61-12 9-20 18-19 34 1 7-8 14-12 21h-151c-12-7-17-17-16-31 1-5-1-13-4-16-21-19-36-42-42-71h-15c-30 0-34-5-34-34 0-34 0-68-1-102 0-9-7-18-10-26zm319 152h-238c1 24 11 43 27 57 15 12 23 26 20 45 0 1 1 2 2 3h136c0-4 1-7 1-9-3-15 3-25 17-33 21-14 34-35 35-63zm-192-11v-138h-94v138zm11-33h95v-104h-95zm-116-116h221v-31h-221zm116 148h180v-20h-180zm-64-116h9c7 1 9 5 11 9 2 2-2 9-4 10-8 2-16-1-16-6 0-6-18-5-18-5l-2-2a69.43 69.43 0 0 1 13-5c2-1 6-1 7-1z" fill="#7f7f7f"/></svg>