<svg viewBox="0 0 505 505" xmlns="http://www.w3.org/2000/svg"><path d="m254 93c13 6 27 10 39 17 22 15 31 37 31 63 1 8 0 16 0 23 34 5 34 5 34 38v32c0 32 0 32-32 35v36h172v68h-18v-19h-153c-2 8-3 13-5 19h-236c-39-9-64-32-72-72v-168q13.5-58.5 72-72zm54 180c0-33 1-66 0-99 0-37-25-63-61-63-51-1-103-1-154 0-35 0-60 25-61 60-1 52-1 104 0 155 0 35 25 61 60 61 67 1 135 0 202 1 11 0 15-4 15-15-1-33-1-67-1-100zm19 97h139c5 0 10-5 14-8-4-4-9-10-14-10-42-1-85 0-127-1-12 0-17 4-12 19zm-2-88a21.81 21.81 0 0 0 5 4c4-4 12-7 12-11 2-17 1-34 1-52-1-3-6-7-10-8-2-1-8 5-8 8-1 20 0 39 0 59zm-70-34c0 48-37 86-84 86a83.7 83.7 0 0 1 -86-84 83.7 83.7 0 0 1 84-86 83.7 83.7 0 0 1 86 84zm-16 3c2-37-29-70-67-71-38-2-71 30-72 68-1 36 30 69 67 71 38 1 71-30 72-68z" fill="#7f7f7f"/></svg>