<svg viewBox="0 0 505 505" xmlns="http://www.w3.org/2000/svg"><g fill="#7f7f7f"><path d="m370.9 303.8v92.9h-236.8v-92.9h-21.5v114.8h279.8v-114.8z"/><path d="m50.7 276.4h48.5v8.3h-48.5z"/><path d="m121.8 276.4h48.5v8.3h-48.5z"/><path d="m192.8 276.4h48.5v8.3h-48.5z"/><path d="m263.8 276.4h48.5v8.3h-48.5z"/><path d="m334.8 276.4h48.5v8.3h-48.5z"/><path d="m405.9 276.4h48.5v8.3h-48.5z"/><path d="m138.2 260 114.3-103.6 114.3 103.6h30.5l-144.8-131.2-144.8 131.2z"/><path d="m252.5 63.9-75.9 68.8v-36h-69.9v99.4l-63.4 57.5h30.4l51.4-46.6 3.1-2.8v-16.5-11.1-58h26.8v33.6 27.6l21.5-19.5 75.9-68.8 178.9 162.1h30.4z"/></g></svg>