<svg viewBox="0 0 505 505" xmlns="http://www.w3.org/2000/svg"><path d="m260 79c84 8 125 40 153 96 9 19 17 37 19 61 0 62 2 122 2 183h-19s-1-13-1-19c-1-50 1-100-1-150-2-77-62-141-137-150-79-9-151 38-171 113-5 17-7 36-7 54-1 44 0 88-1 133 0 6 0 13-1 19h-18c0-63 2-125 2-188 1-3 0-6 1-10 20-76 70-134 175-142m-70 304c-5 24-9 28-30 28-22 0-26-6-25-28 1-30 9-105 5-104-14 0-15-13-14-21 1-4 3-9 17-9 8 0 20-3 20-3l5-17 5-19c6-20 18-28 38-29h98c20 1 30 9 36 28 2 5 10 39 10 39l18-1s12 1 17 5c3 1 3 6 3 7 1 4 2 8-2 11-3 4-11 4-12 7-1 4 5 76 6 106 0 19-3 27-20 28-24 1-31-3-33-24 0-1-1-2-2-4zm-57-117c0 3 16 8 16 8s2 14 1 25c-2 19-2 37-4 56-1 11 1 17 12 17 50-1 102 0 152 0h64c-1-23-2-48-3-69-1-13-13-30 12-37-13-4-22-6-33 3-8 6-20 11-30 12q-60 1.5-120 0c-11-1-23-6-31-13-4-3-11-11-11-11-5-1-17-2-23 0-3 1-2 6-2 9zm125 2s46 0 68-1c15-1 20-8 16-23-3-10-8-30-8-30-3-14-12-19-26-19h-69c-56 0-45-3-60 45-6 20-1 27 20 28zm-79 115h-34s4 15 9 16 17 0 17 0zm-42-118c12-3 21-5 32 3 8 7 20 9 31 9a1180.83 1180.83 0 0 0 119 0c6 0 18-1 27-7 7-4 11-10 15-13 0 0 15-3 21 0 3 1 3 5 3 9a155.24 155.24 0 0 1 -14 8s-1 20-1 29c2 21 3 46 4 69-23 0-43-4-64-4-50 1-100 0-150 1-11 0-15-3-14-14 1-19 2-37 4-56 1-10 5-16 4-20-1-5-9-8-17-14zm225 67c0-12-12-23-24-23a24 24 0 0 0 -22 24c0 12 11 22 23 22s23-12 23-23zm-158 1c0-13-10-23-23-24-12 0-23 11-23 23-1 11 11 23 23 23 11 0 23-10 23-22zm56-8a234.84 234.84 0 0 0 26-1c3 0 6-4 8-6-2-3-4-7-7-7h-54c-3 0-5 4-8 6 3 3 6 7 8 7a243.69 243.69 0 0 0 27 1zm1 15h-28c-3 1-5 4-8 6 3 3 5 7 7 7h55c2 0 5-4 7-6-2-2-5-6-8-7zm115 43a12.59 12.59 0 0 1 -1 12c-1 7-17 5-22 5-4 0-10-17-10-17zm-16-52c0 12-9 22-21 22-12 1-22-9-22-21a22.91 22.91 0 0 1 21-23c12 0 22 11 22 22zm-21-11c-6 0-11 6-11 10 0 5 3 13 11 13 7 0 12-5 12-11 0-5-5-12-12-12zm-136 12c-1 12-10 22-22 21-12 0-22-10-22-21 0-12 10-21 22-21s22 9 22 21zm-11 0c0-7-7-11-11-11-3 0-10 2-11 11 0 7 5 11 13 11 7 0 9-5 9-11zm68-7a243.69 243.69 0 0 1 -27-1c-3 0-3-13 0-13h54c3 0 2 13-1 13a234.84 234.84 0 0 1 -26 1zm1 15h25c3 1 3 13 1 13h-55c-2 0-2-12 1-13z" fill="#7f7f7f"/></svg>