<svg xmlns="http://www.w3.org/2000/svg" xmlns:xlink="http://www.w3.org/1999/xlink" width="150" height="121.439" viewBox="0 0 150 121.439">
  <defs>
    <clipPath id="clip-path">
      <rect id="Rectangle_3" data-name="Rectangle 3" width="150" height="121.439" fill="none"/>
    </clipPath>
  </defs>
  <g id="Group_3" data-name="Group 3" transform="translate(0 -0.001)">
    <rect id="Rectangle_1" data-name="Rectangle 1" width="150" height="40.492" transform="translate(0 80.948)" fill="#fff"/>
    <rect id="Rectangle_2" data-name="Rectangle 2" width="140.305" height="31.126" transform="translate(4.851 85.631)" fill="#9e0c4f"/>
    <g id="Group_2" data-name="Group 2" transform="translate(0 0.001)">
      <g id="Group_1" data-name="Group 1" clip-path="url(#clip-path)">
        <path id="Path_1" data-name="Path 1" d="M188.9,394.2l-.016.119-.034.53c-.031.51-.047,1.082-.047,1.711a1.562,1.562,0,0,1-.062.5.464.464,0,0,1-.436.354c-.41,0-.5-.384-.522-.592a2.429,2.429,0,0,0-.274-1c-.385-.651-1.252-1.048-2.787-1.048a2.907,2.907,0,0,0-1.95.653,2.024,2.024,0,0,0-.741,1.664,2.509,2.509,0,0,0,.544,1.578,12.594,12.594,0,0,0,2.315,1.986l.688.5a11.449,11.449,0,0,1,2.952,2.868,5,5,0,0,1,.762,2.749,4.611,4.611,0,0,1-2.235,4.053,6.982,6.982,0,0,1-3.882,1.011,8.2,8.2,0,0,1-3.42-.643,1.148,1.148,0,0,1-.56-1.163,14.73,14.73,0,0,1,.155-2.676.521.521,0,0,1,.49-.43.515.515,0,0,1,.5.577,3.783,3.783,0,0,0,.065.775c.3,1.344,1.325,2.065,3.312,2.065a3.256,3.256,0,0,0,2.419-.885,2.444,2.444,0,0,0,.765-1.818,2.99,2.99,0,0,0-.556-1.818,9.863,9.863,0,0,0-2.142-2.024l-1.1-.843a10.551,10.551,0,0,1-2.66-2.735,4.719,4.719,0,0,1-.657-2.468,3.945,3.945,0,0,1,1.491-3.214,5.938,5.938,0,0,1,3.911-1.213,11.468,11.468,0,0,1,2.349.234,3.985,3.985,0,0,0,.792.108.51.51,0,0,1,.568.45Zm-4.653,20.693a1.217,1.217,0,0,1-.959-.387,1.1,1.1,0,0,1-.294-.773,1.2,1.2,0,0,1,.319-.8,1.148,1.148,0,0,1,.934-.386,1.331,1.331,0,0,1,.906.319.966.966,0,0,1,.37.8,1.2,1.2,0,0,1-.37.887,1.221,1.221,0,0,1-.906.342m-73.3-6.813a8.469,8.469,0,0,0,.113,1.441c.122.6.352.832.6.894a4.487,4.487,0,0,0,1.144.126.473.473,0,0,1,.522.462.469.469,0,0,1-.312.436,1.183,1.183,0,0,1-.454.073q-.842,0-1.755-.047l-.854-.022-.837.022c-.563.031-1.064.047-1.512.047a1.033,1.033,0,0,1-.431-.077.47.47,0,0,1-.289-.432.475.475,0,0,1,.524-.462,3.673,3.673,0,0,0,.943-.124c.143-.043.345-.258.425-1a14.615,14.615,0,0,0,.049-1.578l.023-13.052a4.2,4.2,0,0,1,.077-.929.875.875,0,0,1,.137-.328.466.466,0,0,1,.383-.208.533.533,0,0,1,.28.1,2.352,2.352,0,0,1,.209.161c.145.125.346.314.6.564q2.011,2.028,7.8,7.816,2.33,2.368,5.311,5.367l-.251-10.758a4.41,4.41,0,0,0-.194-1.455.612.612,0,0,0-.488-.378,4.559,4.559,0,0,0-1.152-.127.481.481,0,0,1-.52-.486.466.466,0,0,1,.346-.431,1.645,1.645,0,0,1,.47-.054c.445,0,.978.014,1.608.047l.952.023.737-.023c.5-.032.943-.047,1.34-.047a1.334,1.334,0,0,1,.444.06.46.46,0,0,1,.324.426c0,.422-.407.486-.594.486a2.641,2.641,0,0,0-.525.064c-.321.059-.458.185-.519.339a4.774,4.774,0,0,0-.127,1.368l-.047,13.349a10.026,10.026,0,0,1-.06,1.255,1.641,1.641,0,0,1-.09.383.446.446,0,0,1-.4.3.484.484,0,0,1-.212-.058,1.291,1.291,0,0,1-.156-.09c-.094-.063-.225-.161-.383-.29q-.455-.369-1.261-1.106-2.651-2.442-6.415-6.183-3.037-3.033-5.819-5.931Zm49.955-4.761h4.044l-2.1-5.537Zm-.56,1.471-1.452,4a4.353,4.353,0,0,0-.324,1.415c0,.166.055.334.607.334h.247a.674.674,0,0,1,.339.075.43.43,0,0,1,.231.387.464.464,0,0,1-.273.428.951.951,0,0,1-.42.081q-.35,0-1.1-.047l-.824-.022-1.034.022c-.693.031-1.268.047-1.729.047a1.318,1.318,0,0,1-.468-.069.474.474,0,0,1-.324-.44c0-.4.379-.462.547-.462a5.565,5.565,0,0,0,.672-.043c.666-.083,1.288-.65,1.8-1.938l5.57-14.146a4.636,4.636,0,0,1,.332-.716,1.116,1.116,0,0,1,.18-.235.453.453,0,0,1,.653-.012,1.029,1.029,0,0,1,.184.219,4.471,4.471,0,0,1,.335.668q2.108,5.15,5.715,13.736c.647,1.5,1.345,2.224,2.053,2.383a3.508,3.508,0,0,0,.738.084.7.7,0,0,1,.343.075.435.435,0,0,1,.229.387.473.473,0,0,1-.335.443,1.459,1.459,0,0,1-.482.066q-2.412,0-3.863-.047a3.728,3.728,0,0,1-.612-.058.859.859,0,0,1-.233-.084.4.4,0,0,1-.206-.342.5.5,0,0,1,.4-.47.825.825,0,0,0-.054-.179l-2.255-5.542Zm-19.681-9.713a.421.421,0,0,0-.017.14v9.362c0,2.607.042,4.239.123,4.9.089.687.343.922.676.968a8.762,8.762,0,0,0,1.061.09.467.467,0,0,1,.235.894,1.033,1.033,0,0,1-.431.077c-.561,0-1.226-.016-2-.047l-1.027-.022-.912.022q-.99.046-1.433.047a1.036,1.036,0,0,1-.434-.077.469.469,0,0,1-.287-.432.488.488,0,0,1,.546-.462,3.655,3.655,0,0,0,.647-.087c.139-.026.354-.211.453-.974q.123-.879.12-4.9v-4.01q0-4.151-.05-4.9a.939.939,0,0,0-.8-1,4.1,4.1,0,0,0-.765-.061.467.467,0,0,1-.236-.9,1.029,1.029,0,0,1,.431-.076c.444,0,1.019.014,1.728.047l1.053.023,1.308-.023c.758-.032,1.345-.047,1.776-.047a7.069,7.069,0,0,1,4.778,1.381,3.762,3.762,0,0,1,1.338,2.956,5.283,5.283,0,0,1-1.827,4.163,6.588,6.588,0,0,1-4.535,1.584,4.151,4.151,0,0,1-.545-.022c-.2-.006-.566-.087-.566-.486a.5.5,0,0,1,.394-.465,2.054,2.054,0,0,1,.594-.068,4.1,4.1,0,0,0,2.8-.989,3.047,3.047,0,0,0,1.114-2.4,4.276,4.276,0,0,0-1.269-3.271,4.373,4.373,0,0,0-3.138-1.049,2.884,2.884,0,0,0-.91.1m-46.9-2.491a1.409,1.409,0,0,1-.382-.992,1.5,1.5,0,0,1,.4-1.008,1.454,1.454,0,0,1,1.182-.5,1.651,1.651,0,0,1,1.118.4,1.28,1.28,0,0,1,.483,1.048,1.52,1.52,0,0,1-.464,1.119,1.553,1.553,0,0,1-1.137.438,1.519,1.519,0,0,1-1.2-.5m2.675,11.993c0,2.607.042,4.239.12,4.9.09.687.345.922.677.968a8.769,8.769,0,0,0,1.061.09.467.467,0,0,1,.235.894,1.025,1.025,0,0,1-.429.077c-.562,0-1.225-.016-2-.047l-1.027-.022-.963.022q-.989.046-1.433.047a1.031,1.031,0,0,1-.432-.077.468.468,0,0,1-.289-.432c0-.4.378-.462.549-.462a3.669,3.669,0,0,0,.648-.087c.138-.026.354-.211.45-.974.084-.586.122-2.222.122-4.9v-4.01q0-4.151-.049-4.9c-.044-.658-.273-.9-.581-.978a3.152,3.152,0,0,0-.688-.084.468.468,0,0,1-.235-.9,1.033,1.033,0,0,1,.431-.076c.33,0,.831.014,1.508.047l.976.023.94-.023c.676-.032,1.16-.047,1.458-.047a1.024,1.024,0,0,1,.431.076.467.467,0,0,1-.236.9,3.819,3.819,0,0,0-.558.064c-.345.055-.594.3-.637,1q-.048.75-.049,4.9ZM82.386,394.2l-.01.113-.034.53c-.031.51-.049,1.082-.049,1.711a1.668,1.668,0,0,1-.057.5.471.471,0,0,1-.441.354c-.406,0-.5-.384-.522-.592a2.423,2.423,0,0,0-.273-1c-.384-.651-1.25-1.048-2.785-1.048a2.91,2.91,0,0,0-1.95.653,2.03,2.03,0,0,0-.743,1.664,2.52,2.52,0,0,0,.544,1.578,12.5,12.5,0,0,0,2.315,1.986l.686.5a11.38,11.38,0,0,1,2.953,2.868,4.99,4.99,0,0,1,.763,2.749,4.613,4.613,0,0,1-2.234,4.053,6.987,6.987,0,0,1-3.883,1.011,8.188,8.188,0,0,1-3.419-.643,1.153,1.153,0,0,1-.561-1.163,14.39,14.39,0,0,1,.157-2.676.5.5,0,1,1,.984.146,3.893,3.893,0,0,0,.067.775c.3,1.344,1.324,2.065,3.311,2.065a3.259,3.259,0,0,0,2.421-.885,2.434,2.434,0,0,0,.763-1.818,2.986,2.986,0,0,0-.556-1.818,9.852,9.852,0,0,0-2.14-2.024l-1.1-.843a10.517,10.517,0,0,1-2.657-2.735,4.706,4.706,0,0,1-.66-2.468,3.949,3.949,0,0,1,1.491-3.214,5.941,5.941,0,0,1,3.912-1.213,11.5,11.5,0,0,1,2.352.234,3.961,3.961,0,0,0,.79.108.511.511,0,0,1,.569.45Z" transform="translate(-56.004 -300.55)" fill="#fdfeff" fill-rule="evenodd"/>
        <path id="Path_2" data-name="Path 2" d="M158.622,80.1a7.5,7.5,0,0,0-6.128,4.345c-7.6-3.611-1.155-9.215-1.155-9.215-1.362-4.974,6.026-8.115,6.026-8.115a22.9,22.9,0,0,1-8.994-4.2c-.148-.13-.375-.261-.527-.4-2.59-2.381-5.683-5.884-6.948-10.017-1.924-6.251-12.429-11.9-17.4-13.292a5.627,5.627,0,0,1-.879-3.9,138.9,138.9,0,0,1,18.294,3.4c6.277,1.7,13.495,4.326,17.785,8.371.861-3.91,2.938-9.354,7.437-16.737A55.188,55.188,0,0,0,169,20.581c1.071-5.5,1.416-12.086-.96-17.475A5.75,5.75,0,0,1,169.862,0l1.072.819a83.476,83.476,0,0,1,8.13,7.333c4.085,4.207,8.794,10.028,9.89,15.676,1.071,5.568-.405,11.157-2.028,15.223a40.446,40.446,0,0,1-3.512,6.852c-.319.6-2.214,4.268-3.681,7.979a26.937,26.937,0,0,0-1.6,5.215l-.03.181,23.264-14.445s2.292,3.636,4.3,6.3a55.355,55.355,0,0,0,7.5,8.321l3.157,2.715-25.7,3.864a45.169,45.169,0,0,1-7.19,6.924c-4.784,3.673-11.791,7.392-19.967,6.929-.038,0-.606-.1-1.347-.142a10.36,10.36,0,0,0-2.6.151Z" transform="translate(-94.431 -0.001)" fill="#fff" fill-rule="evenodd"/>
        <path id="Path_3" data-name="Path 3" d="M335.475,46.342c8.693-19.061-14-34.53-14-34.53s26.41,16.711,16.678,35.4c-11.166,21.434-10.329,23.976-6.807,25.686-9.024-.1-1.373-14.486,4.128-26.553" transform="translate(-247.691 -9.101)" fill="#9e0c4f" fill-rule="evenodd"/>
        <path id="Path_4" data-name="Path 4" d="M178.23,186.353s1.424-7.3-13.424-11.269c-24.033-6.434-22.617-7.622-1.676-1.839,17.149,4.732,15.1,13.108,15.1,13.108" transform="translate(-113.34 -130.607)" fill="#9e0c4f" fill-rule="evenodd"/>
        <path id="Path_5" data-name="Path 5" d="M163.2,192.765s-10.566.164-14.949-9.633c-7.1-15.852-23.821-18.348-23.821-18.348s14.626,3.487,21.014,17.323c5.226,11.329,17.756,10.658,17.756,10.658" transform="translate(-95.87 -126.963)" fill="#9e0c4f" fill-rule="evenodd"/>
        <path id="Path_6" data-name="Path 6" d="M357.744,228.429s25.862-3.278,29.114-3.6-4.65-5.21-7.64-10.211-2.2-2.995-4.8-2.1-22.986,13.756-22.986,13.756,22.685-11.331,24.105-12.137,5.875,7.355,7.023,8.743-3.069,1.147-7.5,1.985-17.325,3.563-17.325,3.563" transform="translate(-270.776 -162.846)" fill="#9e0c4f" fill-rule="evenodd"/>
        <path id="Path_7" data-name="Path 7" d="M245,340.8s-3.311-2.441-.142-5.2c.543-.477-.074-1.446-.376-1.185-3.9,3.4.518,6.387.518,6.387" transform="translate(-187.128 -257.624)" fill="#9e0c4f" fill-rule="evenodd"/>
        <path id="Path_8" data-name="Path 8" d="M291.824,77.035s-9.03-9.494-.994-23.332c13.017-22.407,5.22-38.163,5.22-38.163s4.989,14.857-6.216,34.588c-9.183,16.153,1.989,26.907,1.989,26.907" transform="translate(-220.521 -11.973)" fill="#9e0c4f" fill-rule="evenodd"/>
        <path id="Path_9" data-name="Path 9" d="M253.038,303.826s-2.11-4.272,6.8-7.164c4.307-1.4,6.707-3.949.711-2.078-10.528,3.283-7.514,9.242-7.514,9.242" transform="translate(-194.653 -226.462)" fill="#9e0c4f" fill-rule="evenodd"/>
        <path id="Path_10" data-name="Path 10" d="M253.889,295.986s2.892-4.262,9.459-3.56c15.943,1.7,27.837-14.861,27.837-14.861s-15.274,13.462-27.343,13.3c-6.343-.087-9.954,5.126-9.954,5.126" transform="translate(-195.617 -213.859)" fill="#9e0c4f" fill-rule="evenodd"/>
        <path id="Path_11" data-name="Path 11" d="M62.028,359.153a6.034,6.034,0,0,0,4.37,1.908h85.178v33.722H8.392V361.056H58.769l-2.017-1.9H6.469v37.52H153.5V359.153Z" transform="translate(-4.984 -276.721)" fill="#9e0c4f" fill-rule="evenodd"/>
      </g>
    </g>
  </g>
</svg>
